<svg width="25" height="25" viewBox="0 0 25 25" fill="none" xmlns="http://www.w3.org/2000/svg">
<path d="M16.9271 10.9375L14.3229 13.5417L15.4166 14.6354L16.0937 13.9583C15.9896 14.8785 15.5989 15.6469 14.9219 16.2635C14.2448 16.8795 13.4375 17.1875 12.5 17.1875C12.2569 17.1875 12.0312 17.166 11.8229 17.1229C11.6146 17.0792 11.4062 17.0139 11.1979 16.9271L10.0521 18.0729C10.4166 18.2812 10.8031 18.4462 11.2114 18.5677C11.6191 18.6892 12.0486 18.75 12.5 18.75C13.8889 18.75 15.0736 18.2812 16.0541 17.3437C17.0354 16.4062 17.5694 15.2604 17.6562 13.9062L18.4375 14.6354L19.5312 13.5417L16.9271 10.9375ZM8.0729 16.1458L10.6771 13.5417L9.58331 12.4479L8.90623 13.125C9.0104 12.2049 9.40102 11.4365 10.0781 10.8198C10.7552 10.2038 11.5625 9.89583 12.5 9.89583C12.743 9.89583 12.9687 9.91736 13.1771 9.96042C13.3854 10.0042 13.5937 10.0694 13.8021 10.1562L14.9479 9.01042C14.5833 8.80208 14.1972 8.63715 13.7896 8.51562C13.3812 8.3941 12.9514 8.33333 12.5 8.33333C11.1111 8.33333 9.92637 8.80208 8.94581 9.73958C7.96456 10.6771 7.43054 11.8229 7.34373 13.1771L6.56248 12.4479L5.46873 13.5417L8.0729 16.1458ZM4.16665 21.875C3.59373 21.875 3.10345 21.6712 2.69581 21.2635C2.28748 20.8552 2.08331 20.3646 2.08331 19.7917V7.29167C2.08331 6.71875 2.28748 6.22847 2.69581 5.82083C3.10345 5.4125 3.59373 5.20833 4.16665 5.20833H7.4479L9.37498 3.125H15.625L17.5521 5.20833H20.8333C21.4062 5.20833 21.8969 5.4125 22.3052 5.82083C22.7128 6.22847 22.9166 6.71875 22.9166 7.29167V19.7917C22.9166 20.3646 22.7128 20.8552 22.3052 21.2635C21.8969 21.6712 21.4062 21.875 20.8333 21.875H4.16665Z" fill="#D9D9D9"/>
</svg>
